solid OpenSCAD_Model
  facet normal -1 0 0
    outer loop
      vertex 0 60 0
      vertex 0 30 4
      vertex 0 60 4
    endloop
  endfacet
  facet normal -1 0 0
    outer loop
      vertex 0 0 0
      vertex 0 30 4
      vertex 0 60 0
    endloop
  endfacet
  facet normal -1 0 0
    outer loop
      vertex 0 0 8
      vertex 0 30 4
      vertex 0 0 0
    endloop
  endfacet
  facet normal -1 0 0
    outer loop
      vertex 0 30 4
      vertex 0 0 8
      vertex 0 30 8
    endloop
  endfacet
  facet normal 0 0 1
    outer loop
      vertex 100 60 4
      vertex 80 50 4
      vertex 100 0 4
    endloop
  endfacet
  facet normal 0 0 1
    outer loop
      vertex 100 60 4
      vertex 20 50 4
      vertex 80 50 4
    endloop
  endfacet
  facet normal -0 0 1
    outer loop
      vertex 0 60 4
      vertex 20 50 4
      vertex 100 60 4
    endloop
  endfacet
  facet normal 0 0 1
    outer loop
      vertex 0 30 4
      vertex 20 50 4
      vertex 0 60 4
    endloop
  endfacet
  facet normal 0 0 1
    outer loop
      vertex 20 50 4
      vertex 0 30 4
      vertex 20 10 4
    endloop
  endfacet
  facet normal -0 0 1
    outer loop
      vertex 80 10 4
      vertex 100 0 4
      vertex 80 50 4
    endloop
  endfacet
  facet normal 0 0 1
    outer loop
      vertex 80 10 4
      vertex 70 0 4
      vertex 100 0 4
    endloop
  endfacet
  facet normal 0 0 1
    outer loop
      vertex 80 10 4
      vertex 40 0 4
      vertex 70 0 4
    endloop
  endfacet
  facet normal -0 0 1
    outer loop
      vertex 20 10 4
      vertex 40 0 4
      vertex 80 10 4
    endloop
  endfacet
  facet normal 0 0 1
    outer loop
      vertex 40 0 4
      vertex 20 10 4
      vertex 30 0 4
    endloop
  endfacet
  facet normal 1 -0 0
    outer loop
      vertex 100 0 4
      vertex 100 60 0
      vertex 100 60 4
    endloop
  endfacet
  facet normal 1 0 0
    outer loop
      vertex 100 60 0
      vertex 100 0 4
      vertex 100 0 0
    endloop
  endfacet
  facet normal 0 0 -1
    outer loop
      vertex 100 0 0
      vertex 80 10 0
      vertex 100 60 0
    endloop
  endfacet
  facet normal 0 0 -1
    outer loop
      vertex 100 0 0
      vertex 20 10 0
      vertex 80 10 0
    endloop
  endfacet
  facet normal -0 0 -1
    outer loop
      vertex 20 10 0
      vertex 0 0 0
      vertex 20 50 0
    endloop
  endfacet
  facet normal 0 0 -1
    outer loop
      vertex 0 0 0
      vertex 20 10 0
      vertex 100 0 0
    endloop
  endfacet
  facet normal 0 0 -1
    outer loop
      vertex 80 50 0
      vertex 100 60 0
      vertex 80 10 0
    endloop
  endfacet
  facet normal 0 0 -1
    outer loop
      vertex 20 50 0
      vertex 100 60 0
      vertex 80 50 0
    endloop
  endfacet
  facet normal 0 0 -1
    outer loop
      vertex 20 50 0
      vertex 0 60 0
      vertex 100 60 0
    endloop
  endfacet
  facet normal 0 0 -1
    outer loop
      vertex 0 60 0
      vertex 20 50 0
      vertex 0 0 0
    endloop
  endfacet
  facet normal 0 -1 0
    outer loop
      vertex 0 0 8
      vertex 30 0 4
      vertex 30 0 8
    endloop
  endfacet
  facet normal 0 -1 0
    outer loop
      vertex 0 0 0
      vertex 40 0 4
      vertex 30 0 4
    endloop
  endfacet
  facet normal 0 -1 0
    outer loop
      vertex 40 0 4
      vertex 100 0 0
      vertex 70 0 4
    endloop
  endfacet
  facet normal 0 -1 0
    outer loop
      vertex 0 0 0
      vertex 30 0 4
      vertex 0 0 8
    endloop
  endfacet
  facet normal 0 -1 -0
    outer loop
      vertex 40 0 4
      vertex 0 0 0
      vertex 100 0 0
    endloop
  endfacet
  facet normal 0 -1 0
    outer loop
      vertex 70 0 4
      vertex 100 0 0
      vertex 100 0 4
    endloop
  endfacet
  facet normal 0 1 -0
    outer loop
      vertex 100 60 0
      vertex 0 60 4
      vertex 100 60 4
    endloop
  endfacet
  facet normal 0 1 0
    outer loop
      vertex 0 60 4
      vertex 100 60 0
      vertex 0 60 0
    endloop
  endfacet
  facet normal 1 -0 0
    outer loop
      vertex 20 10 4
      vertex 20 50 0
      vertex 20 50 4
    endloop
  endfacet
  facet normal 1 0 0
    outer loop
      vertex 20 50 0
      vertex 20 10 4
      vertex 20 10 0
    endloop
  endfacet
  facet normal -1 0 0
    outer loop
      vertex 80 10 0
      vertex 80 50 4
      vertex 80 50 0
    endloop
  endfacet
  facet normal -1 -0 0
    outer loop
      vertex 80 50 4
      vertex 80 10 0
      vertex 80 10 4
    endloop
  endfacet
  facet normal 0 1 -0
    outer loop
      vertex 80 10 0
      vertex 20 10 4
      vertex 80 10 4
    endloop
  endfacet
  facet normal 0 1 0
    outer loop
      vertex 20 10 4
      vertex 80 10 0
      vertex 20 10 0
    endloop
  endfacet
  facet normal 0 -1 0
    outer loop
      vertex 20 50 0
      vertex 80 50 4
      vertex 20 50 4
    endloop
  endfacet
  facet normal 0 -1 -0
    outer loop
      vertex 80 50 4
      vertex 20 50 0
      vertex 80 50 0
    endloop
  endfacet
  facet normal -1 0 0
    outer loop
      vertex 47 28 34
      vertex 47 32 64
      vertex 47 32 34
    endloop
  endfacet
  facet normal -1 -0 0
    outer loop
      vertex 47 32 64
      vertex 47 28 34
      vertex 47 28 64
    endloop
  endfacet
  facet normal -0 0 1
    outer loop
      vertex 47 32 64
      vertex 53 28 64
      vertex 53 32 64
    endloop
  endfacet
  facet normal 0 0 1
    outer loop
      vertex 53 28 64
      vertex 47 32 64
      vertex 47 28 64
    endloop
  endfacet
  facet normal 1 -0 0
    outer loop
      vertex 53 28 64
      vertex 53 32 34
      vertex 53 32 64
    endloop
  endfacet
  facet normal 1 0 0
    outer loop
      vertex 53 32 34
      vertex 53 28 64
      vertex 53 28 34
    endloop
  endfacet
  facet normal 0 0 -1
    outer loop
      vertex 47 28 34
      vertex 53 32 34
      vertex 53 28 34
    endloop
  endfacet
  facet normal -0 0 -1
    outer loop
      vertex 53 32 34
      vertex 47 28 34
      vertex 47 32 34
    endloop
  endfacet
  facet normal 0 -1 0
    outer loop
      vertex 47 28 64
      vertex 49 28 54
      vertex 53 28 64
    endloop
  endfacet
  facet normal 0 -1 0
    outer loop
      vertex 47 28 64
      vertex 49 28 44
      vertex 49 28 54
    endloop
  endfacet
  facet normal 0 -1 -0
    outer loop
      vertex 49 28 44
      vertex 47 28 34
      vertex 51 28 44
    endloop
  endfacet
  facet normal 0 -1 0
    outer loop
      vertex 47 28 34
      vertex 49 28 44
      vertex 47 28 64
    endloop
  endfacet
  facet normal 0 -1 0
    outer loop
      vertex 51 28 54
      vertex 53 28 64
      vertex 49 28 54
    endloop
  endfacet
  facet normal 0 -1 0
    outer loop
      vertex 51 28 44
      vertex 53 28 64
      vertex 51 28 54
    endloop
  endfacet
  facet normal 0 -1 0
    outer loop
      vertex 51 28 44
      vertex 53 28 34
      vertex 53 28 64
    endloop
  endfacet
  facet normal 0 -1 0
    outer loop
      vertex 53 28 34
      vertex 51 28 44
      vertex 47 28 34
    endloop
  endfacet
  facet normal 0 1 0
    outer loop
      vertex 53 32 64
      vertex 51 32 54
      vertex 47 32 64
    endloop
  endfacet
  facet normal 0 1 0
    outer loop
      vertex 53 32 64
      vertex 51 32 44
      vertex 51 32 54
    endloop
  endfacet
  facet normal 0 1 0
    outer loop
      vertex 51 32 44
      vertex 53 32 34
      vertex 49 32 44
    endloop
  endfacet
  facet normal 0 1 -0
    outer loop
      vertex 53 32 34
      vertex 51 32 44
      vertex 53 32 64
    endloop
  endfacet
  facet normal 0 1 -0
    outer loop
      vertex 49 32 54
      vertex 47 32 64
      vertex 51 32 54
    endloop
  endfacet
  facet normal 0 1 -0
    outer loop
      vertex 49 32 44
      vertex 47 32 64
      vertex 49 32 54
    endloop
  endfacet
  facet normal 0 1 0
    outer loop
      vertex 49 32 44
      vertex 47 32 34
      vertex 47 32 64
    endloop
  endfacet
  facet normal 0 1 0
    outer loop
      vertex 47 32 34
      vertex 49 32 44
      vertex 53 32 34
    endloop
  endfacet
  facet normal 1 -0 0
    outer loop
      vertex 49 28 54
      vertex 49 32 44
      vertex 49 32 54
    endloop
  endfacet
  facet normal 1 0 0
    outer loop
      vertex 49 32 44
      vertex 49 28 54
      vertex 49 28 44
    endloop
  endfacet
  facet normal 0 0 -1
    outer loop
      vertex 49 28 54
      vertex 51 32 54
      vertex 51 28 54
    endloop
  endfacet
  facet normal -0 0 -1
    outer loop
      vertex 51 32 54
      vertex 49 28 54
      vertex 49 32 54
    endloop
  endfacet
  facet normal -1 0 0
    outer loop
      vertex 51 28 44
      vertex 51 32 54
      vertex 51 32 44
    endloop
  endfacet
  facet normal -1 -0 0
    outer loop
      vertex 51 32 54
      vertex 51 28 44
      vertex 51 28 54
    endloop
  endfacet
  facet normal -0 0 1
    outer loop
      vertex 49 32 44
      vertex 51 28 44
      vertex 51 32 44
    endloop
  endfacet
  facet normal 0 0 1
    outer loop
      vertex 51 28 44
      vertex 49 32 44
      vertex 49 28 44
    endloop
  endfacet
  facet normal 0.707107 0.707107 0
    outer loop
      vertex 0 30 8
      vertex 20 10 4
      vertex 0 30 4
    endloop
  endfacet
  facet normal 0.707107 0.707107 0
    outer loop
      vertex 30 0 8
      vertex 20 10 4
      vertex 0 30 8
    endloop
  endfacet
  facet normal 0.707107 0.707107 0
    outer loop
      vertex 20 10 4
      vertex 30 0 8
      vertex 30 0 4
    endloop
  endfacet
  facet normal 0 0 1
    outer loop
      vertex 0 30 8
      vertex 0 0 8
      vertex 30 0 8
    endloop
  endfacet
  facet normal 0 0 -1
    outer loop
      vertex 70 -30 4
      vertex 40 0 4
      vertex 70 0 4
    endloop
  endfacet
  facet normal -0.707107 -0.707107 0
    outer loop
      vertex 70 -30 4
      vertex 40 0 8
      vertex 40 0 4
    endloop
  endfacet
  facet normal -0.707107 -0.707107 0
    outer loop
      vertex 40 0 8
      vertex 70 -30 4
      vertex 70 -30 8
    endloop
  endfacet
  facet normal 0 1 -0
    outer loop
      vertex 70 0 4
      vertex 40 0 8
      vertex 70 0 8
    endloop
  endfacet
  facet normal 0 1 0
    outer loop
      vertex 40 0 8
      vertex 70 0 4
      vertex 40 0 4
    endloop
  endfacet
  facet normal 1 -0 0
    outer loop
      vertex 70 -30 8
      vertex 70 0 4
      vertex 70 0 8
    endloop
  endfacet
  facet normal 1 0 0
    outer loop
      vertex 70 0 4
      vertex 70 -30 8
      vertex 70 -30 4
    endloop
  endfacet
  facet normal 0 0 1
    outer loop
      vertex 70 0 8
      vertex 40 0 8
      vertex 70 -30 8
    endloop
  endfacet
endsolid OpenSCAD_Model
