solid OpenSCAD_Model
  facet normal -0.743149 -0.669126 0
    outer loop
      vertex -13.3826 -14.8629 0
      vertex -16.1803 -11.7557 30
      vertex -16.1803 -11.7557 0
    endloop
  endfacet
  facet normal -0.743149 -0.669126 0
    outer loop
      vertex -16.1803 -11.7557 30
      vertex -13.3826 -14.8629 0
      vertex -13.3826 -14.8629 30
    endloop
  endfacet
  facet normal 0.951053 0.309029 0
    outer loop
      vertex 19.563 4.15823 30
      vertex 18.2709 8.13473 0
      vertex 18.2709 8.13473 30
    endloop
  endfacet
  facet normal 0.951053 0.309029 0
    outer loop
      vertex 18.2709 8.13473 0
      vertex 19.563 4.15823 30
      vertex 19.563 4.15823 0
    endloop
  endfacet
  facet normal 0.994523 0.104517 0
    outer loop
      vertex 20 0 30
      vertex 19.563 4.15823 0
      vertex 19.563 4.15823 30
    endloop
  endfacet
  facet normal 0.994523 0.104517 0
    outer loop
      vertex 19.563 4.15823 0
      vertex 20 0 30
      vertex 20 0 0
    endloop
  endfacet
  facet normal 0.866022 0.500006 0
    outer loop
      vertex 18.2709 8.13473 30
      vertex 16.1803 11.7557 0
      vertex 16.1803 11.7557 30
    endloop
  endfacet
  facet normal 0.866022 0.500006 0
    outer loop
      vertex 16.1803 11.7557 0
      vertex 18.2709 8.13473 30
      vertex 18.2709 8.13473 0
    endloop
  endfacet
  facet normal 0.951053 -0.309029 0
    outer loop
      vertex 18.2709 -8.13473 30
      vertex 19.563 -4.15823 0
      vertex 19.563 -4.15823 30
    endloop
  endfacet
  facet normal 0.951053 -0.309029 0
    outer loop
      vertex 19.563 -4.15823 0
      vertex 18.2709 -8.13473 30
      vertex 18.2709 -8.13473 0
    endloop
  endfacet
  facet normal 0.587785 -0.809017 0
    outer loop
      vertex 10 -17.3205 0
      vertex 13.3826 -14.8629 30
      vertex 10 -17.3205 30
    endloop
  endfacet
  facet normal 0.587785 -0.809017 0
    outer loop
      vertex 13.3826 -14.8629 30
      vertex 10 -17.3205 0
      vertex 13.3826 -14.8629 0
    endloop
  endfacet
  facet normal 0.743149 -0.669126 0
    outer loop
      vertex 13.3826 -14.8629 30
      vertex 16.1803 -11.7557 0
      vertex 16.1803 -11.7557 30
    endloop
  endfacet
  facet normal 0.743149 -0.669126 0
    outer loop
      vertex 16.1803 -11.7557 0
      vertex 13.3826 -14.8629 30
      vertex 13.3826 -14.8629 0
    endloop
  endfacet
  facet normal 0.994523 -0.104517 0
    outer loop
      vertex 19.563 -4.15823 30
      vertex 20 0 0
      vertex 20 0 30
    endloop
  endfacet
  facet normal 0.994523 -0.104517 0
    outer loop
      vertex 20 0 0
      vertex 19.563 -4.15823 30
      vertex 19.563 -4.15823 0
    endloop
  endfacet
  facet normal -0.406732 -0.913547 0
    outer loop
      vertex -10 -17.3205 0
      vertex -6.18034 -19.0211 30
      vertex -10 -17.3205 30
    endloop
  endfacet
  facet normal -0.406732 -0.913547 -0
    outer loop
      vertex -6.18034 -19.0211 30
      vertex -10 -17.3205 0
      vertex -6.18034 -19.0211 0
    endloop
  endfacet
  facet normal 0.406732 0.913547 -0
    outer loop
      vertex 10 17.3205 0
      vertex 6.18034 19.0211 30
      vertex 10 17.3205 30
    endloop
  endfacet
  facet normal 0.406732 0.913547 0
    outer loop
      vertex 6.18034 19.0211 30
      vertex 10 17.3205 0
      vertex 6.18034 19.0211 0
    endloop
  endfacet
  facet normal 0.743149 0.669126 0
    outer loop
      vertex 16.1803 11.7557 30
      vertex 13.3826 14.8629 0
      vertex 13.3826 14.8629 30
    endloop
  endfacet
  facet normal 0.743149 0.669126 0
    outer loop
      vertex 13.3826 14.8629 0
      vertex 16.1803 11.7557 30
      vertex 16.1803 11.7557 0
    endloop
  endfacet
  facet normal -0.587785 -0.809017 0
    outer loop
      vertex -13.3826 -14.8629 0
      vertex -10 -17.3205 30
      vertex -13.3826 -14.8629 30
    endloop
  endfacet
  facet normal -0.587785 -0.809017 -0
    outer loop
      vertex -10 -17.3205 30
      vertex -13.3826 -14.8629 0
      vertex -10 -17.3205 0
    endloop
  endfacet
  facet normal -0.743149 0.669126 0
    outer loop
      vertex -16.1803 11.7557 0
      vertex -13.3826 14.8629 30
      vertex -13.3826 14.8629 0
    endloop
  endfacet
  facet normal -0.743149 0.669126 0
    outer loop
      vertex -13.3826 14.8629 30
      vertex -16.1803 11.7557 0
      vertex -16.1803 11.7557 30
    endloop
  endfacet
  facet normal 0 1 -0
    outer loop
      vertex 2.09057 19.8904 0
      vertex -2.09057 19.8904 30
      vertex 2.09057 19.8904 30
    endloop
  endfacet
  facet normal 0 1 0
    outer loop
      vertex -2.09057 19.8904 30
      vertex 2.09057 19.8904 0
      vertex -2.09057 19.8904 0
    endloop
  endfacet
  facet normal 0.406732 -0.913547 0
    outer loop
      vertex 6.18034 -19.0211 0
      vertex 10 -17.3205 30
      vertex 6.18034 -19.0211 30
    endloop
  endfacet
  facet normal 0.406732 -0.913547 0
    outer loop
      vertex 10 -17.3205 30
      vertex 6.18034 -19.0211 0
      vertex 10 -17.3205 0
    endloop
  endfacet
  facet normal 0.20791 -0.978148 0
    outer loop
      vertex 2.09057 -19.8904 0
      vertex 6.18034 -19.0211 30
      vertex 2.09057 -19.8904 30
    endloop
  endfacet
  facet normal 0.20791 -0.978148 0
    outer loop
      vertex 6.18034 -19.0211 30
      vertex 2.09057 -19.8904 0
      vertex 6.18034 -19.0211 0
    endloop
  endfacet
  facet normal -0.951053 0.309029 0
    outer loop
      vertex -19.563 4.15823 0
      vertex -18.2709 8.13473 30
      vertex -18.2709 8.13473 0
    endloop
  endfacet
  facet normal -0.951053 0.309029 0
    outer loop
      vertex -18.2709 8.13473 30
      vertex -19.563 4.15823 0
      vertex -19.563 4.15823 30
    endloop
  endfacet
  facet normal 0 0 -1
    outer loop
      vertex 15 0 0
      vertex 20 0 0
      vertex 19.563 -4.15823 0
    endloop
  endfacet
  facet normal 0 0 -1
    outer loop
      vertex 14.6722 -3.11868 0
      vertex 19.563 -4.15823 0
      vertex 18.2709 -8.13473 0
    endloop
  endfacet
  facet normal 0 0 -1
    outer loop
      vertex 20 0 0
      vertex 15 0 0
      vertex 19.563 4.15823 0
    endloop
  endfacet
  facet normal 0 0 -1
    outer loop
      vertex 13.7032 -6.10105 0
      vertex 18.2709 -8.13473 0
      vertex 16.1803 -11.7557 0
    endloop
  endfacet
  facet normal 0 0 -1
    outer loop
      vertex 14.6722 3.11868 0
      vertex 19.563 4.15823 0
      vertex 15 0 0
    endloop
  endfacet
  facet normal -0 0 -1
    outer loop
      vertex 19.563 4.15823 0
      vertex 14.6722 3.11868 0
      vertex 18.2709 8.13473 0
    endloop
  endfacet
  facet normal 0 0 -1
    outer loop
      vertex 19.563 -4.15823 0
      vertex 14.6722 -3.11868 0
      vertex 15 0 0
    endloop
  endfacet
  facet normal 0 0 -1
    outer loop
      vertex 18.2709 -8.13473 0
      vertex 13.7032 -6.10105 0
      vertex 14.6722 -3.11868 0
    endloop
  endfacet
  facet normal 0 0 -1
    outer loop
      vertex 12.1353 -8.81678 0
      vertex 16.1803 -11.7557 0
      vertex 13.3826 -14.8629 0
    endloop
  endfacet
  facet normal 0 0 -1
    outer loop
      vertex 16.1803 -11.7557 0
      vertex 12.1353 -8.81678 0
      vertex 13.7032 -6.10105 0
    endloop
  endfacet
  facet normal 0 0 -1
    outer loop
      vertex 13.3826 -14.8629 0
      vertex 10.037 -11.1472 0
      vertex 12.1353 -8.81678 0
    endloop
  endfacet
  facet normal 0 0 -1
    outer loop
      vertex 10 -17.3205 0
      vertex 10.037 -11.1472 0
      vertex 13.3826 -14.8629 0
    endloop
  endfacet
  facet normal 0 0 -1
    outer loop
      vertex 10 -17.3205 0
      vertex 7.5 -12.9904 0
      vertex 10.037 -11.1472 0
    endloop
  endfacet
  facet normal 0 0 -1
    outer loop
      vertex 6.18034 -19.0211 0
      vertex 7.5 -12.9904 0
      vertex 10 -17.3205 0
    endloop
  endfacet
  facet normal 0 0 -1
    outer loop
      vertex 6.18034 -19.0211 0
      vertex 4.63525 -14.2658 0
      vertex 7.5 -12.9904 0
    endloop
  endfacet
  facet normal 0 0 -1
    outer loop
      vertex 2.09057 -19.8904 0
      vertex 4.63525 -14.2658 0
      vertex 6.18034 -19.0211 0
    endloop
  endfacet
  facet normal 0 0 -1
    outer loop
      vertex 2.09057 -19.8904 0
      vertex 1.56793 -14.9178 0
      vertex 4.63525 -14.2658 0
    endloop
  endfacet
  facet normal 0 0 -1
    outer loop
      vertex 2.09057 -19.8904 0
      vertex -1.56793 -14.9178 0
      vertex 1.56793 -14.9178 0
    endloop
  endfacet
  facet normal 0 0 -1
    outer loop
      vertex -2.09057 -19.8904 0
      vertex -1.56793 -14.9178 0
      vertex 2.09057 -19.8904 0
    endloop
  endfacet
  facet normal 0 0 -1
    outer loop
      vertex -2.09057 -19.8904 0
      vertex -4.63525 -14.2658 0
      vertex -1.56793 -14.9178 0
    endloop
  endfacet
  facet normal 0 0 -1
    outer loop
      vertex -6.18034 -19.0211 0
      vertex -4.63525 -14.2658 0
      vertex -2.09057 -19.8904 0
    endloop
  endfacet
  facet normal 0 0 -1
    outer loop
      vertex -6.18034 -19.0211 0
      vertex -7.5 -12.9904 0
      vertex -4.63525 -14.2658 0
    endloop
  endfacet
  facet normal 0 0 -1
    outer loop
      vertex -10 -17.3205 0
      vertex -7.5 -12.9904 0
      vertex -6.18034 -19.0211 0
    endloop
  endfacet
  facet normal 0 0 -1
    outer loop
      vertex -10 -17.3205 0
      vertex -10.037 -11.1472 0
      vertex -7.5 -12.9904 0
    endloop
  endfacet
  facet normal 0 0 -1
    outer loop
      vertex -13.3826 -14.8629 0
      vertex -10.037 -11.1472 0
      vertex -10 -17.3205 0
    endloop
  endfacet
  facet normal -0 0 -1
    outer loop
      vertex -10.037 -11.1472 0
      vertex -13.3826 -14.8629 0
      vertex -12.1353 -8.81678 0
    endloop
  endfacet
  facet normal 0 0 -1
    outer loop
      vertex -16.1803 -11.7557 0
      vertex -12.1353 -8.81678 0
      vertex -13.3826 -14.8629 0
    endloop
  endfacet
  facet normal -0 0 -1
    outer loop
      vertex -12.1353 -8.81678 0
      vertex -16.1803 -11.7557 0
      vertex -13.7032 -6.10105 0
    endloop
  endfacet
  facet normal -0 0 -1
    outer loop
      vertex -13.7032 -6.10105 0
      vertex -18.2709 -8.13473 0
      vertex -14.6722 -3.11868 0
    endloop
  endfacet
  facet normal 0 0 -1
    outer loop
      vertex -18.2709 -8.13473 0
      vertex -13.7032 -6.10105 0
      vertex -16.1803 -11.7557 0
    endloop
  endfacet
  facet normal 0 0 -1
    outer loop
      vertex 13.7032 6.10105 0
      vertex 18.2709 8.13473 0
      vertex 14.6722 3.11868 0
    endloop
  endfacet
  facet normal -0 0 -1
    outer loop
      vertex 18.2709 8.13473 0
      vertex 13.7032 6.10105 0
      vertex 16.1803 11.7557 0
    endloop
  endfacet
  facet normal 0 0 -1
    outer loop
      vertex 12.1353 8.81678 0
      vertex 16.1803 11.7557 0
      vertex 13.7032 6.10105 0
    endloop
  endfacet
  facet normal -0 0 -1
    outer loop
      vertex 16.1803 11.7557 0
      vertex 12.1353 8.81678 0
      vertex 13.3826 14.8629 0
    endloop
  endfacet
  facet normal 0 0 -1
    outer loop
      vertex 10.037 11.1472 0
      vertex 13.3826 14.8629 0
      vertex 12.1353 8.81678 0
    endloop
  endfacet
  facet normal 0 0 -1
    outer loop
      vertex 10.037 11.1472 0
      vertex 10 17.3205 0
      vertex 13.3826 14.8629 0
    endloop
  endfacet
  facet normal 0 0 -1
    outer loop
      vertex 7.5 12.9904 0
      vertex 10 17.3205 0
      vertex 10.037 11.1472 0
    endloop
  endfacet
  facet normal 0 0 -1
    outer loop
      vertex 7.5 12.9904 0
      vertex 6.18034 19.0211 0
      vertex 10 17.3205 0
    endloop
  endfacet
  facet normal 0 0 -1
    outer loop
      vertex 4.63525 14.2658 0
      vertex 6.18034 19.0211 0
      vertex 7.5 12.9904 0
    endloop
  endfacet
  facet normal 0 0 -1
    outer loop
      vertex 4.63525 14.2658 0
      vertex 2.09057 19.8904 0
      vertex 6.18034 19.0211 0
    endloop
  endfacet
  facet normal 0 0 -1
    outer loop
      vertex 1.56793 14.9178 0
      vertex 2.09057 19.8904 0
      vertex 4.63525 14.2658 0
    endloop
  endfacet
  facet normal 0 0 -1
    outer loop
      vertex -1.56793 14.9178 0
      vertex 2.09057 19.8904 0
      vertex 1.56793 14.9178 0
    endloop
  endfacet
  facet normal 0 0 -1
    outer loop
      vertex -1.56793 14.9178 0
      vertex -2.09057 19.8904 0
      vertex 2.09057 19.8904 0
    endloop
  endfacet
  facet normal 0 0 -1
    outer loop
      vertex -4.63525 14.2658 0
      vertex -2.09057 19.8904 0
      vertex -1.56793 14.9178 0
    endloop
  endfacet
  facet normal 0 0 -1
    outer loop
      vertex -4.63525 14.2658 0
      vertex -6.18034 19.0211 0
      vertex -2.09057 19.8904 0
    endloop
  endfacet
  facet normal 0 0 -1
    outer loop
      vertex -7.5 12.9904 0
      vertex -6.18034 19.0211 0
      vertex -4.63525 14.2658 0
    endloop
  endfacet
  facet normal 0 0 -1
    outer loop
      vertex -7.5 12.9904 0
      vertex -10 17.3205 0
      vertex -6.18034 19.0211 0
    endloop
  endfacet
  facet normal 0 0 -1
    outer loop
      vertex -10.037 11.1472 0
      vertex -10 17.3205 0
      vertex -7.5 12.9904 0
    endloop
  endfacet
  facet normal 0 0 -1
    outer loop
      vertex -13.3826 14.8629 0
      vertex -10.037 11.1472 0
      vertex -12.1353 8.81678 0
    endloop
  endfacet
  facet normal 0 0 -1
    outer loop
      vertex -10.037 11.1472 0
      vertex -13.3826 14.8629 0
      vertex -10 17.3205 0
    endloop
  endfacet
  facet normal 0 0 -1
    outer loop
      vertex -16.1803 11.7557 0
      vertex -12.1353 8.81678 0
      vertex -13.7032 6.10105 0
    endloop
  endfacet
  facet normal 0 0 -1
    outer loop
      vertex -18.2709 8.13473 0
      vertex -13.7032 6.10105 0
      vertex -14.6722 3.11868 0
    endloop
  endfacet
  facet normal 0 0 -1
    outer loop
      vertex -12.1353 8.81678 0
      vertex -16.1803 11.7557 0
      vertex -13.3826 14.8629 0
    endloop
  endfacet
  facet normal 0 0 -1
    outer loop
      vertex -19.563 4.15823 0
      vertex -14.6722 3.11868 0
      vertex -15 0 0
    endloop
  endfacet
  facet normal 0 0 -1
    outer loop
      vertex -19.563 -4.15823 0
      vertex -14.6722 -3.11868 0
      vertex -18.2709 -8.13473 0
    endloop
  endfacet
  facet normal -0 0 -1
    outer loop
      vertex -14.6722 -3.11868 0
      vertex -19.563 -4.15823 0
      vertex -15 0 0
    endloop
  endfacet
  facet normal 0 0 -1
    outer loop
      vertex -13.7032 6.10105 0
      vertex -18.2709 8.13473 0
      vertex -16.1803 11.7557 0
    endloop
  endfacet
  facet normal 0 0 -1
    outer loop
      vertex -20 0 0
      vertex -15 0 0
      vertex -19.563 -4.15823 0
    endloop
  endfacet
  facet normal 0 0 -1
    outer loop
      vertex -14.6722 3.11868 0
      vertex -19.563 4.15823 0
      vertex -18.2709 8.13473 0
    endloop
  endfacet
  facet normal 0 0 -1
    outer loop
      vertex -15 0 0
      vertex -20 0 0
      vertex -19.563 4.15823 0
    endloop
  endfacet
  facet normal 0 0 -1
    outer loop
      vertex 14.6722 -3.11868 0
      vertex 14.6722 3.11868 0
      vertex 15 0 0
    endloop
  endfacet
  facet normal 0 0 -1
    outer loop
      vertex 13.7032 -6.10105 0
      vertex 14.6722 3.11868 0
      vertex 14.6722 -3.11868 0
    endloop
  endfacet
  facet normal 0 0 -1
    outer loop
      vertex 13.7032 -6.10105 0
      vertex 13.7032 6.10105 0
      vertex 14.6722 3.11868 0
    endloop
  endfacet
  facet normal 0 0 -1
    outer loop
      vertex 12.1353 -8.81678 0
      vertex 13.7032 6.10105 0
      vertex 13.7032 -6.10105 0
    endloop
  endfacet
  facet normal 0 0 -1
    outer loop
      vertex 12.1353 -8.81678 0
      vertex 12.1353 8.81678 0
      vertex 13.7032 6.10105 0
    endloop
  endfacet
  facet normal 0 0 -1
    outer loop
      vertex 10.037 -11.1472 0
      vertex 12.1353 8.81678 0
      vertex 12.1353 -8.81678 0
    endloop
  endfacet
  facet normal 0 0 -1
    outer loop
      vertex 10.037 -11.1472 0
      vertex 10.037 11.1472 0
      vertex 12.1353 8.81678 0
    endloop
  endfacet
  facet normal 0 0 -1
    outer loop
      vertex 7.5 -12.9904 0
      vertex 10.037 11.1472 0
      vertex 10.037 -11.1472 0
    endloop
  endfacet
  facet normal 0 0 -1
    outer loop
      vertex 7.5 -12.9904 0
      vertex 7.5 12.9904 0
      vertex 10.037 11.1472 0
    endloop
  endfacet
  facet normal 0 0 -1
    outer loop
      vertex 4.63525 -14.2658 0
      vertex 7.5 12.9904 0
      vertex 7.5 -12.9904 0
    endloop
  endfacet
  facet normal 0 0 -1
    outer loop
      vertex 4.63525 -14.2658 0
      vertex 4.63525 14.2658 0
      vertex 7.5 12.9904 0
    endloop
  endfacet
  facet normal 0 0 -1
    outer loop
      vertex 1.56793 -14.9178 0
      vertex 4.63525 14.2658 0
      vertex 4.63525 -14.2658 0
    endloop
  endfacet
  facet normal 0 0 -1
    outer loop
      vertex 1.56793 -14.9178 0
      vertex 1.56793 14.9178 0
      vertex 4.63525 14.2658 0
    endloop
  endfacet
  facet normal 0 0 -1
    outer loop
      vertex -1.56793 -14.9178 0
      vertex 1.56793 14.9178 0
      vertex 1.56793 -14.9178 0
    endloop
  endfacet
  facet normal 0 0 -1
    outer loop
      vertex -1.56793 -14.9178 0
      vertex -1.56793 14.9178 0
      vertex 1.56793 14.9178 0
    endloop
  endfacet
  facet normal 0 0 -1
    outer loop
      vertex -4.63525 -14.2658 0
      vertex -1.56793 14.9178 0
      vertex -1.56793 -14.9178 0
    endloop
  endfacet
  facet normal 0 0 -1
    outer loop
      vertex -4.63525 -14.2658 0
      vertex -4.63525 14.2658 0
      vertex -1.56793 14.9178 0
    endloop
  endfacet
  facet normal 0 0 -1
    outer loop
      vertex -7.5 -12.9904 0
      vertex -4.63525 14.2658 0
      vertex -4.63525 -14.2658 0
    endloop
  endfacet
  facet normal 0 0 -1
    outer loop
      vertex -7.5 -12.9904 0
      vertex -7.5 12.9904 0
      vertex -4.63525 14.2658 0
    endloop
  endfacet
  facet normal 0 0 -1
    outer loop
      vertex -10.037 -11.1472 0
      vertex -7.5 12.9904 0
      vertex -7.5 -12.9904 0
    endloop
  endfacet
  facet normal 0 0 -1
    outer loop
      vertex -10.037 -11.1472 0
      vertex -10.037 11.1472 0
      vertex -7.5 12.9904 0
    endloop
  endfacet
  facet normal 0 0 -1
    outer loop
      vertex -12.1353 -8.81678 0
      vertex -10.037 11.1472 0
      vertex -10.037 -11.1472 0
    endloop
  endfacet
  facet normal 0 0 -1
    outer loop
      vertex -12.1353 -8.81678 0
      vertex -12.1353 8.81678 0
      vertex -10.037 11.1472 0
    endloop
  endfacet
  facet normal 0 0 -1
    outer loop
      vertex -13.7032 -6.10105 0
      vertex -12.1353 8.81678 0
      vertex -12.1353 -8.81678 0
    endloop
  endfacet
  facet normal 0 0 -1
    outer loop
      vertex -13.7032 -6.10105 0
      vertex -13.7032 6.10105 0
      vertex -12.1353 8.81678 0
    endloop
  endfacet
  facet normal 0 0 -1
    outer loop
      vertex -14.6722 -3.11868 0
      vertex -13.7032 6.10105 0
      vertex -13.7032 -6.10105 0
    endloop
  endfacet
  facet normal 0 0 -1
    outer loop
      vertex -14.6722 -3.11868 0
      vertex -14.6722 3.11868 0
      vertex -13.7032 6.10105 0
    endloop
  endfacet
  facet normal 0 -0 -1
    outer loop
      vertex -14.6722 3.11868 0
      vertex -14.6722 -3.11868 0
      vertex -15 0 0
    endloop
  endfacet
  facet normal -0.951053 -0.309029 0
    outer loop
      vertex -18.2709 -8.13473 0
      vertex -19.563 -4.15823 30
      vertex -19.563 -4.15823 0
    endloop
  endfacet
  facet normal -0.951053 -0.309029 0
    outer loop
      vertex -19.563 -4.15823 30
      vertex -18.2709 -8.13473 0
      vertex -18.2709 -8.13473 30
    endloop
  endfacet
  facet normal -0.406732 0.913547 0
    outer loop
      vertex -6.18034 19.0211 0
      vertex -10 17.3205 30
      vertex -6.18034 19.0211 30
    endloop
  endfacet
  facet normal -0.406732 0.913547 0
    outer loop
      vertex -10 17.3205 30
      vertex -6.18034 19.0211 0
      vertex -10 17.3205 0
    endloop
  endfacet
  facet normal 0 0 1
    outer loop
      vertex 19.563 4.15823 30
      vertex 19.563 -4.15823 30
      vertex 20 0 30
    endloop
  endfacet
  facet normal 0 0 1
    outer loop
      vertex 18.2709 8.13473 30
      vertex 19.563 -4.15823 30
      vertex 19.563 4.15823 30
    endloop
  endfacet
  facet normal 0 0 1
    outer loop
      vertex 18.2709 8.13473 30
      vertex 18.2709 -8.13473 30
      vertex 19.563 -4.15823 30
    endloop
  endfacet
  facet normal 0 0 1
    outer loop
      vertex 16.1803 11.7557 30
      vertex 18.2709 -8.13473 30
      vertex 18.2709 8.13473 30
    endloop
  endfacet
  facet normal 0 0 1
    outer loop
      vertex 16.1803 11.7557 30
      vertex 16.1803 -11.7557 30
      vertex 18.2709 -8.13473 30
    endloop
  endfacet
  facet normal 0 0 1
    outer loop
      vertex 13.3826 14.8629 30
      vertex 16.1803 -11.7557 30
      vertex 16.1803 11.7557 30
    endloop
  endfacet
  facet normal 0 0 1
    outer loop
      vertex 13.3826 14.8629 30
      vertex 13.3826 -14.8629 30
      vertex 16.1803 -11.7557 30
    endloop
  endfacet
  facet normal 0 0 1
    outer loop
      vertex 10 17.3205 30
      vertex 13.3826 -14.8629 30
      vertex 13.3826 14.8629 30
    endloop
  endfacet
  facet normal 0 0 1
    outer loop
      vertex 10 17.3205 30
      vertex 10 -17.3205 30
      vertex 13.3826 -14.8629 30
    endloop
  endfacet
  facet normal 0 0 1
    outer loop
      vertex 6.18034 19.0211 30
      vertex 10 -17.3205 30
      vertex 10 17.3205 30
    endloop
  endfacet
  facet normal 0 0 1
    outer loop
      vertex 6.18034 19.0211 30
      vertex 6.18034 -19.0211 30
      vertex 10 -17.3205 30
    endloop
  endfacet
  facet normal 0 0 1
    outer loop
      vertex 2.09057 19.8904 30
      vertex 6.18034 -19.0211 30
      vertex 6.18034 19.0211 30
    endloop
  endfacet
  facet normal 0 0 1
    outer loop
      vertex 2.09057 19.8904 30
      vertex 2.09057 -19.8904 30
      vertex 6.18034 -19.0211 30
    endloop
  endfacet
  facet normal -0 0 1
    outer loop
      vertex -2.09057 19.8904 30
      vertex 2.09057 -19.8904 30
      vertex 2.09057 19.8904 30
    endloop
  endfacet
  facet normal 0 0 1
    outer loop
      vertex -2.09057 19.8904 30
      vertex -2.09057 -19.8904 30
      vertex 2.09057 -19.8904 30
    endloop
  endfacet
  facet normal -0 0 1
    outer loop
      vertex -6.18034 19.0211 30
      vertex -2.09057 -19.8904 30
      vertex -2.09057 19.8904 30
    endloop
  endfacet
  facet normal 0 0 1
    outer loop
      vertex -6.18034 19.0211 30
      vertex -6.18034 -19.0211 30
      vertex -2.09057 -19.8904 30
    endloop
  endfacet
  facet normal -0 0 1
    outer loop
      vertex -10 17.3205 30
      vertex -6.18034 -19.0211 30
      vertex -6.18034 19.0211 30
    endloop
  endfacet
  facet normal 0 0 1
    outer loop
      vertex -10 17.3205 30
      vertex -10 -17.3205 30
      vertex -6.18034 -19.0211 30
    endloop
  endfacet
  facet normal -0 0 1
    outer loop
      vertex -13.3826 14.8629 30
      vertex -10 -17.3205 30
      vertex -10 17.3205 30
    endloop
  endfacet
  facet normal 0 0 1
    outer loop
      vertex -13.3826 14.8629 30
      vertex -13.3826 -14.8629 30
      vertex -10 -17.3205 30
    endloop
  endfacet
  facet normal -0 0 1
    outer loop
      vertex -16.1803 11.7557 30
      vertex -13.3826 -14.8629 30
      vertex -13.3826 14.8629 30
    endloop
  endfacet
  facet normal 0 0 1
    outer loop
      vertex -16.1803 11.7557 30
      vertex -16.1803 -11.7557 30
      vertex -13.3826 -14.8629 30
    endloop
  endfacet
  facet normal -0 0 1
    outer loop
      vertex -18.2709 8.13473 30
      vertex -16.1803 -11.7557 30
      vertex -16.1803 11.7557 30
    endloop
  endfacet
  facet normal 0 0 1
    outer loop
      vertex -18.2709 8.13473 30
      vertex -18.2709 -8.13473 30
      vertex -16.1803 -11.7557 30
    endloop
  endfacet
  facet normal -0 0 1
    outer loop
      vertex -19.563 4.15823 30
      vertex -18.2709 -8.13473 30
      vertex -18.2709 8.13473 30
    endloop
  endfacet
  facet normal 0 0 1
    outer loop
      vertex -19.563 4.15823 30
      vertex -19.563 -4.15823 30
      vertex -18.2709 -8.13473 30
    endloop
  endfacet
  facet normal 0 -0 1
    outer loop
      vertex -19.563 -4.15823 30
      vertex -19.563 4.15823 30
      vertex -20 0 30
    endloop
  endfacet
  facet normal -0.20791 -0.978148 0
    outer loop
      vertex -6.18034 -19.0211 0
      vertex -2.09057 -19.8904 30
      vertex -6.18034 -19.0211 30
    endloop
  endfacet
  facet normal -0.20791 -0.978148 -0
    outer loop
      vertex -2.09057 -19.8904 30
      vertex -6.18034 -19.0211 0
      vertex -2.09057 -19.8904 0
    endloop
  endfacet
  facet normal 0.20791 0.978148 -0
    outer loop
      vertex 6.18034 19.0211 0
      vertex 2.09057 19.8904 30
      vertex 6.18034 19.0211 30
    endloop
  endfacet
  facet normal 0.20791 0.978148 0
    outer loop
      vertex 2.09057 19.8904 30
      vertex 6.18034 19.0211 0
      vertex 2.09057 19.8904 0
    endloop
  endfacet
  facet normal -0.994523 -0.104517 0
    outer loop
      vertex -19.563 -4.15823 0
      vertex -20 0 30
      vertex -20 0 0
    endloop
  endfacet
  facet normal -0.994523 -0.104517 0
    outer loop
      vertex -20 0 30
      vertex -19.563 -4.15823 0
      vertex -19.563 -4.15823 30
    endloop
  endfacet
  facet normal -0.866022 -0.500006 0
    outer loop
      vertex -16.1803 -11.7557 0
      vertex -18.2709 -8.13473 30
      vertex -18.2709 -8.13473 0
    endloop
  endfacet
  facet normal -0.866022 -0.500006 0
    outer loop
      vertex -18.2709 -8.13473 30
      vertex -16.1803 -11.7557 0
      vertex -16.1803 -11.7557 30
    endloop
  endfacet
  facet normal -0.866022 0.500006 0
    outer loop
      vertex -18.2709 8.13473 0
      vertex -16.1803 11.7557 30
      vertex -16.1803 11.7557 0
    endloop
  endfacet
  facet normal -0.866022 0.500006 0
    outer loop
      vertex -16.1803 11.7557 30
      vertex -18.2709 8.13473 0
      vertex -18.2709 8.13473 30
    endloop
  endfacet
  facet normal 0.866022 -0.500006 0
    outer loop
      vertex 16.1803 -11.7557 30
      vertex 18.2709 -8.13473 0
      vertex 18.2709 -8.13473 30
    endloop
  endfacet
  facet normal 0.866022 -0.500006 0
    outer loop
      vertex 18.2709 -8.13473 0
      vertex 16.1803 -11.7557 30
      vertex 16.1803 -11.7557 0
    endloop
  endfacet
  facet normal 0.587785 0.809017 -0
    outer loop
      vertex 13.3826 14.8629 0
      vertex 10 17.3205 30
      vertex 13.3826 14.8629 30
    endloop
  endfacet
  facet normal 0.587785 0.809017 0
    outer loop
      vertex 10 17.3205 30
      vertex 13.3826 14.8629 0
      vertex 10 17.3205 0
    endloop
  endfacet
  facet normal -0.587785 0.809017 0
    outer loop
      vertex -10 17.3205 0
      vertex -13.3826 14.8629 30
      vertex -10 17.3205 30
    endloop
  endfacet
  facet normal -0.587785 0.809017 0
    outer loop
      vertex -13.3826 14.8629 30
      vertex -10 17.3205 0
      vertex -13.3826 14.8629 0
    endloop
  endfacet
  facet normal -0.20791 0.978148 0
    outer loop
      vertex -2.09057 19.8904 0
      vertex -6.18034 19.0211 30
      vertex -2.09057 19.8904 30
    endloop
  endfacet
  facet normal -0.20791 0.978148 0
    outer loop
      vertex -6.18034 19.0211 30
      vertex -2.09057 19.8904 0
      vertex -6.18034 19.0211 0
    endloop
  endfacet
  facet normal 0 -1 0
    outer loop
      vertex -2.09057 -19.8904 0
      vertex 2.09057 -19.8904 30
      vertex -2.09057 -19.8904 30
    endloop
  endfacet
  facet normal 0 -1 -0
    outer loop
      vertex 2.09057 -19.8904 30
      vertex -2.09057 -19.8904 0
      vertex 2.09057 -19.8904 0
    endloop
  endfacet
  facet normal -0.994523 0.104517 0
    outer loop
      vertex -20 0 0
      vertex -19.563 4.15823 30
      vertex -19.563 4.15823 0
    endloop
  endfacet
  facet normal -0.994523 0.104517 0
    outer loop
      vertex -19.563 4.15823 30
      vertex -20 0 0
      vertex -20 0 30
    endloop
  endfacet
  facet normal -0.743147 -0.669129 0
    outer loop
      vertex -6.69131 -7.43145 -10
      vertex -8.09017 -5.87785 -5
      vertex -8.09017 -5.87785 -10
    endloop
  endfacet
  facet normal -0.743147 -0.669129 0
    outer loop
      vertex -8.09017 -5.87785 -5
      vertex -6.69131 -7.43145 -10
      vertex -6.69131 -7.43145 -5
    endloop
  endfacet
  facet normal 0.951055 0.309021 0
    outer loop
      vertex 9.78148 2.07912 -5
      vertex 9.13545 4.06737 -10
      vertex 9.13545 4.06737 -5
    endloop
  endfacet
  facet normal 0.951055 0.309021 0
    outer loop
      vertex 9.13545 4.06737 -10
      vertex 9.78148 2.07912 -5
      vertex 9.78148 2.07912 -10
    endloop
  endfacet
  facet normal 0.994522 0.104526 0
    outer loop
      vertex 10 0 -5
      vertex 9.78148 2.07912 -10
      vertex 9.78148 2.07912 -5
    endloop
  endfacet
  facet normal 0.994522 0.104526 0
    outer loop
      vertex 9.78148 2.07912 -10
      vertex 10 0 -5
      vertex 10 0 -10
    endloop
  endfacet
  facet normal 0.866026 0.5 0
    outer loop
      vertex 9.13545 4.06737 -5
      vertex 8.09017 5.87785 -10
      vertex 8.09017 5.87785 -5
    endloop
  endfacet
  facet normal 0.866026 0.5 0
    outer loop
      vertex 8.09017 5.87785 -10
      vertex 9.13545 4.06737 -5
      vertex 9.13545 4.06737 -10
    endloop
  endfacet
  facet normal 0.951055 -0.309021 0
    outer loop
      vertex 9.13545 -4.06737 -5
      vertex 9.78148 -2.07912 -10
      vertex 9.78148 -2.07912 -5
    endloop
  endfacet
  facet normal 0.951055 -0.309021 0
    outer loop
      vertex 9.78148 -2.07912 -10
      vertex 9.13545 -4.06737 -5
      vertex 9.13545 -4.06737 -10
    endloop
  endfacet
  facet normal -0.587783 0.809019 0
    outer loop
      vertex -5 8.66025 -10
      vertex -6.69131 7.43145 -5
      vertex -5 8.66025 -5
    endloop
  endfacet
  facet normal -0.587783 0.809019 0
    outer loop
      vertex -6.69131 7.43145 -5
      vertex -5 8.66025 -10
      vertex -6.69131 7.43145 -10
    endloop
  endfacet
  facet normal 0.587783 -0.809019 0
    outer loop
      vertex 5 -8.66025 -10
      vertex 6.69131 -7.43145 -5
      vertex 5 -8.66025 -5
    endloop
  endfacet
  facet normal 0.587783 -0.809019 0
    outer loop
      vertex 6.69131 -7.43145 -5
      vertex 5 -8.66025 -10
      vertex 6.69131 -7.43145 -10
    endloop
  endfacet
  facet normal 0.743147 -0.669129 0
    outer loop
      vertex 6.69131 -7.43145 -5
      vertex 8.09017 -5.87785 -10
      vertex 8.09017 -5.87785 -5
    endloop
  endfacet
  facet normal 0.743147 -0.669129 0
    outer loop
      vertex 8.09017 -5.87785 -10
      vertex 6.69131 -7.43145 -5
      vertex 6.69131 -7.43145 -10
    endloop
  endfacet
  facet normal 0.994522 -0.104526 0
    outer loop
      vertex 9.78148 -2.07912 -5
      vertex 10 0 -10
      vertex 10 0 -5
    endloop
  endfacet
  facet normal 0.994522 -0.104526 0
    outer loop
      vertex 10 0 -10
      vertex 9.78148 -2.07912 -5
      vertex 9.78148 -2.07912 -10
    endloop
  endfacet
  facet normal -0.406736 -0.913546 0
    outer loop
      vertex -5 -8.66025 -10
      vertex -3.09017 -9.51056 -5
      vertex -5 -8.66025 -5
    endloop
  endfacet
  facet normal -0.406736 -0.913546 -0
    outer loop
      vertex -3.09017 -9.51056 -5
      vertex -5 -8.66025 -10
      vertex -3.09017 -9.51056 -10
    endloop
  endfacet
  facet normal 0.406736 0.913546 -0
    outer loop
      vertex 5 8.66025 -10
      vertex 3.09017 9.51056 -5
      vertex 5 8.66025 -5
    endloop
  endfacet
  facet normal 0.406736 0.913546 0
    outer loop
      vertex 3.09017 9.51056 -5
      vertex 5 8.66025 -10
      vertex 3.09017 9.51056 -10
    endloop
  endfacet
  facet normal 0.743147 0.669129 0
    outer loop
      vertex 8.09017 5.87785 -5
      vertex 6.69131 7.43145 -10
      vertex 6.69131 7.43145 -5
    endloop
  endfacet
  facet normal 0.743147 0.669129 0
    outer loop
      vertex 6.69131 7.43145 -10
      vertex 8.09017 5.87785 -5
      vertex 8.09017 5.87785 -10
    endloop
  endfacet
  facet normal -0.587783 -0.809019 0
    outer loop
      vertex -6.69131 -7.43145 -10
      vertex -5 -8.66025 -5
      vertex -6.69131 -7.43145 -5
    endloop
  endfacet
  facet normal -0.587783 -0.809019 -0
    outer loop
      vertex -5 -8.66025 -5
      vertex -6.69131 -7.43145 -10
      vertex -5 -8.66025 -10
    endloop
  endfacet
  facet normal -0.743147 0.669129 0
    outer loop
      vertex -8.09017 5.87785 -10
      vertex -6.69131 7.43145 -5
      vertex -6.69131 7.43145 -10
    endloop
  endfacet
  facet normal -0.743147 0.669129 0
    outer loop
      vertex -6.69131 7.43145 -5
      vertex -8.09017 5.87785 -10
      vertex -8.09017 5.87785 -5
    endloop
  endfacet
  facet normal 0 1 -0
    outer loop
      vertex 1.04528 9.94522 -10
      vertex -1.04528 9.94522 -5
      vertex 1.04528 9.94522 -5
    endloop
  endfacet
  facet normal 0 1 0
    outer loop
      vertex -1.04528 9.94522 -5
      vertex 1.04528 9.94522 -10
      vertex -1.04528 9.94522 -10
    endloop
  endfacet
  facet normal 0.406736 -0.913546 0
    outer loop
      vertex 3.09017 -9.51056 -10
      vertex 5 -8.66025 -5
      vertex 3.09017 -9.51056 -5
    endloop
  endfacet
  facet normal 0.406736 -0.913546 0
    outer loop
      vertex 5 -8.66025 -5
      vertex 3.09017 -9.51056 -10
      vertex 5 -8.66025 -10
    endloop
  endfacet
  facet normal 0.207914 -0.978147 0
    outer loop
      vertex 1.04528 -9.94522 -10
      vertex 3.09017 -9.51056 -5
      vertex 1.04528 -9.94522 -5
    endloop
  endfacet
  facet normal 0.207914 -0.978147 0
    outer loop
      vertex 3.09017 -9.51056 -5
      vertex 1.04528 -9.94522 -10
      vertex 3.09017 -9.51056 -10
    endloop
  endfacet
  facet normal -0.951055 0.309021 0
    outer loop
      vertex -9.78148 2.07912 -10
      vertex -9.13545 4.06737 -5
      vertex -9.13545 4.06737 -10
    endloop
  endfacet
  facet normal -0.951055 0.309021 0
    outer loop
      vertex -9.13545 4.06737 -5
      vertex -9.78148 2.07912 -10
      vertex -9.78148 2.07912 -5
    endloop
  endfacet
  facet normal 0 0 -1
    outer loop
      vertex 9.78148 -2.07912 -10
      vertex 9.78148 2.07912 -10
      vertex 10 0 -10
    endloop
  endfacet
  facet normal 0 0 -1
    outer loop
      vertex 9.13545 -4.06737 -10
      vertex 9.78148 2.07912 -10
      vertex 9.78148 -2.07912 -10
    endloop
  endfacet
  facet normal 0 0 -1
    outer loop
      vertex 9.13545 -4.06737 -10
      vertex 9.13545 4.06737 -10
      vertex 9.78148 2.07912 -10
    endloop
  endfacet
  facet normal 0 0 -1
    outer loop
      vertex 8.09017 -5.87785 -10
      vertex 9.13545 4.06737 -10
      vertex 9.13545 -4.06737 -10
    endloop
  endfacet
  facet normal 0 0 -1
    outer loop
      vertex 8.09017 -5.87785 -10
      vertex 8.09017 5.87785 -10
      vertex 9.13545 4.06737 -10
    endloop
  endfacet
  facet normal 0 0 -1
    outer loop
      vertex 6.69131 -7.43145 -10
      vertex 8.09017 5.87785 -10
      vertex 8.09017 -5.87785 -10
    endloop
  endfacet
  facet normal 0 0 -1
    outer loop
      vertex 6.69131 -7.43145 -10
      vertex 6.69131 7.43145 -10
      vertex 8.09017 5.87785 -10
    endloop
  endfacet
  facet normal 0 0 -1
    outer loop
      vertex 5 -8.66025 -10
      vertex 6.69131 7.43145 -10
      vertex 6.69131 -7.43145 -10
    endloop
  endfacet
  facet normal 0 0 -1
    outer loop
      vertex 5 -8.66025 -10
      vertex 5 8.66025 -10
      vertex 6.69131 7.43145 -10
    endloop
  endfacet
  facet normal 0 0 -1
    outer loop
      vertex 3.09017 -9.51056 -10
      vertex 5 8.66025 -10
      vertex 5 -8.66025 -10
    endloop
  endfacet
  facet normal 0 0 -1
    outer loop
      vertex 3.09017 -9.51056 -10
      vertex 3.09017 9.51056 -10
      vertex 5 8.66025 -10
    endloop
  endfacet
  facet normal 0 0 -1
    outer loop
      vertex 1.04528 -9.94522 -10
      vertex 3.09017 9.51056 -10
      vertex 3.09017 -9.51056 -10
    endloop
  endfacet
  facet normal 0 0 -1
    outer loop
      vertex 1.04528 -9.94522 -10
      vertex 1.04528 9.94522 -10
      vertex 3.09017 9.51056 -10
    endloop
  endfacet
  facet normal 0 0 -1
    outer loop
      vertex -1.04528 -9.94522 -10
      vertex 1.04528 9.94522 -10
      vertex 1.04528 -9.94522 -10
    endloop
  endfacet
  facet normal 0 0 -1
    outer loop
      vertex -1.04528 -9.94522 -10
      vertex -1.04528 9.94522 -10
      vertex 1.04528 9.94522 -10
    endloop
  endfacet
  facet normal 0 0 -1
    outer loop
      vertex -3.09017 -9.51056 -10
      vertex -1.04528 9.94522 -10
      vertex -1.04528 -9.94522 -10
    endloop
  endfacet
  facet normal 0 0 -1
    outer loop
      vertex -3.09017 -9.51056 -10
      vertex -3.09017 9.51056 -10
      vertex -1.04528 9.94522 -10
    endloop
  endfacet
  facet normal 0 0 -1
    outer loop
      vertex -5 -8.66025 -10
      vertex -3.09017 9.51056 -10
      vertex -3.09017 -9.51056 -10
    endloop
  endfacet
  facet normal 0 0 -1
    outer loop
      vertex -5 -8.66025 -10
      vertex -5 8.66025 -10
      vertex -3.09017 9.51056 -10
    endloop
  endfacet
  facet normal 0 0 -1
    outer loop
      vertex -6.69131 -7.43145 -10
      vertex -5 8.66025 -10
      vertex -5 -8.66025 -10
    endloop
  endfacet
  facet normal 0 0 -1
    outer loop
      vertex -6.69131 -7.43145 -10
      vertex -6.69131 7.43145 -10
      vertex -5 8.66025 -10
    endloop
  endfacet
  facet normal 0 0 -1
    outer loop
      vertex -8.09017 -5.87785 -10
      vertex -6.69131 7.43145 -10
      vertex -6.69131 -7.43145 -10
    endloop
  endfacet
  facet normal 0 0 -1
    outer loop
      vertex -8.09017 -5.87785 -10
      vertex -8.09017 5.87785 -10
      vertex -6.69131 7.43145 -10
    endloop
  endfacet
  facet normal 0 0 -1
    outer loop
      vertex -9.13545 -4.06737 -10
      vertex -8.09017 5.87785 -10
      vertex -8.09017 -5.87785 -10
    endloop
  endfacet
  facet normal 0 0 -1
    outer loop
      vertex -9.13545 -4.06737 -10
      vertex -9.13545 4.06737 -10
      vertex -8.09017 5.87785 -10
    endloop
  endfacet
  facet normal 0 0 -1
    outer loop
      vertex -9.78148 -2.07912 -10
      vertex -9.13545 4.06737 -10
      vertex -9.13545 -4.06737 -10
    endloop
  endfacet
  facet normal 0 0 -1
    outer loop
      vertex -9.78148 -2.07912 -10
      vertex -9.78148 2.07912 -10
      vertex -9.13545 4.06737 -10
    endloop
  endfacet
  facet normal 0 -0 -1
    outer loop
      vertex -9.78148 2.07912 -10
      vertex -9.78148 -2.07912 -10
      vertex -10 0 -10
    endloop
  endfacet
  facet normal -0.951055 -0.309021 0
    outer loop
      vertex -9.13545 -4.06737 -10
      vertex -9.78148 -2.07912 -5
      vertex -9.78148 -2.07912 -10
    endloop
  endfacet
  facet normal -0.951055 -0.309021 0
    outer loop
      vertex -9.78148 -2.07912 -5
      vertex -9.13545 -4.06737 -10
      vertex -9.13545 -4.06737 -5
    endloop
  endfacet
  facet normal -0.406736 0.913546 0
    outer loop
      vertex -3.09017 9.51056 -10
      vertex -5 8.66025 -5
      vertex -3.09017 9.51056 -5
    endloop
  endfacet
  facet normal -0.406736 0.913546 0
    outer loop
      vertex -5 8.66025 -5
      vertex -3.09017 9.51056 -10
      vertex -5 8.66025 -10
    endloop
  endfacet
  facet normal -0.207914 -0.978147 0
    outer loop
      vertex -3.09017 -9.51056 -10
      vertex -1.04528 -9.94522 -5
      vertex -3.09017 -9.51056 -5
    endloop
  endfacet
  facet normal -0.207914 -0.978147 -0
    outer loop
      vertex -1.04528 -9.94522 -5
      vertex -3.09017 -9.51056 -10
      vertex -1.04528 -9.94522 -10
    endloop
  endfacet
  facet normal 0.207914 0.978147 -0
    outer loop
      vertex 3.09017 9.51056 -10
      vertex 1.04528 9.94522 -5
      vertex 3.09017 9.51056 -5
    endloop
  endfacet
  facet normal 0.207914 0.978147 0
    outer loop
      vertex 1.04528 9.94522 -5
      vertex 3.09017 9.51056 -10
      vertex 1.04528 9.94522 -10
    endloop
  endfacet
  facet normal -0.994522 -0.104526 0
    outer loop
      vertex -9.78148 -2.07912 -10
      vertex -10 0 -5
      vertex -10 0 -10
    endloop
  endfacet
  facet normal -0.994522 -0.104526 0
    outer loop
      vertex -10 0 -5
      vertex -9.78148 -2.07912 -10
      vertex -9.78148 -2.07912 -5
    endloop
  endfacet
  facet normal -0.866026 -0.5 0
    outer loop
      vertex -8.09017 -5.87785 -10
      vertex -9.13545 -4.06737 -5
      vertex -9.13545 -4.06737 -10
    endloop
  endfacet
  facet normal -0.866026 -0.5 0
    outer loop
      vertex -9.13545 -4.06737 -5
      vertex -8.09017 -5.87785 -10
      vertex -8.09017 -5.87785 -5
    endloop
  endfacet
  facet normal -0.866026 0.5 0
    outer loop
      vertex -9.13545 4.06737 -10
      vertex -8.09017 5.87785 -5
      vertex -8.09017 5.87785 -10
    endloop
  endfacet
  facet normal -0.866026 0.5 0
    outer loop
      vertex -8.09017 5.87785 -5
      vertex -9.13545 4.06737 -10
      vertex -9.13545 4.06737 -5
    endloop
  endfacet
  facet normal 0.866026 -0.5 0
    outer loop
      vertex 8.09017 -5.87785 -5
      vertex 9.13545 -4.06737 -10
      vertex 9.13545 -4.06737 -5
    endloop
  endfacet
  facet normal 0.866026 -0.5 0
    outer loop
      vertex 9.13545 -4.06737 -10
      vertex 8.09017 -5.87785 -5
      vertex 8.09017 -5.87785 -10
    endloop
  endfacet
  facet normal 0.587783 0.809019 -0
    outer loop
      vertex 6.69131 7.43145 -10
      vertex 5 8.66025 -5
      vertex 6.69131 7.43145 -5
    endloop
  endfacet
  facet normal 0.587783 0.809019 0
    outer loop
      vertex 5 8.66025 -5
      vertex 6.69131 7.43145 -10
      vertex 5 8.66025 -10
    endloop
  endfacet
  facet normal -0.207914 0.978147 0
    outer loop
      vertex -1.04528 9.94522 -10
      vertex -3.09017 9.51056 -5
      vertex -1.04528 9.94522 -5
    endloop
  endfacet
  facet normal -0.207914 0.978147 0
    outer loop
      vertex -3.09017 9.51056 -5
      vertex -1.04528 9.94522 -10
      vertex -3.09017 9.51056 -10
    endloop
  endfacet
  facet normal 0 -1 0
    outer loop
      vertex -1.04528 -9.94522 -10
      vertex 1.04528 -9.94522 -5
      vertex -1.04528 -9.94522 -5
    endloop
  endfacet
  facet normal 0 -1 -0
    outer loop
      vertex 1.04528 -9.94522 -5
      vertex -1.04528 -9.94522 -10
      vertex 1.04528 -9.94522 -10
    endloop
  endfacet
  facet normal -0.994522 0.104526 0
    outer loop
      vertex -10 0 -10
      vertex -9.78148 2.07912 -5
      vertex -9.78148 2.07912 -10
    endloop
  endfacet
  facet normal -0.994522 0.104526 0
    outer loop
      vertex -9.78148 2.07912 -5
      vertex -10 0 -10
      vertex -10 0 -5
    endloop
  endfacet
  facet normal 0 0 1
    outer loop
      vertex 9.78148 2.07912 -5
      vertex 9.78148 -2.07912 -5
      vertex 10 0 -5
    endloop
  endfacet
  facet normal 0 0 1
    outer loop
      vertex 9.13545 4.06737 -5
      vertex 9.78148 -2.07912 -5
      vertex 9.78148 2.07912 -5
    endloop
  endfacet
  facet normal 0 0 1
    outer loop
      vertex 9.13545 4.06737 -5
      vertex 9.13545 -4.06737 -5
      vertex 9.78148 -2.07912 -5
    endloop
  endfacet
  facet normal 0 0 1
    outer loop
      vertex 8.09017 5.87785 -5
      vertex 9.13545 -4.06737 -5
      vertex 9.13545 4.06737 -5
    endloop
  endfacet
  facet normal 0 0 1
    outer loop
      vertex 8.09017 5.87785 -5
      vertex 8.09017 -5.87785 -5
      vertex 9.13545 -4.06737 -5
    endloop
  endfacet
  facet normal 0 0 1
    outer loop
      vertex 6.69131 7.43145 -5
      vertex 8.09017 -5.87785 -5
      vertex 8.09017 5.87785 -5
    endloop
  endfacet
  facet normal 0 0 1
    outer loop
      vertex 6.69131 7.43145 -5
      vertex 6.69131 -7.43145 -5
      vertex 8.09017 -5.87785 -5
    endloop
  endfacet
  facet normal 0 0 1
    outer loop
      vertex 5 8.66025 -5
      vertex 6.69131 -7.43145 -5
      vertex 6.69131 7.43145 -5
    endloop
  endfacet
  facet normal 0 0 1
    outer loop
      vertex 5 8.66025 -5
      vertex 5 -8.66025 -5
      vertex 6.69131 -7.43145 -5
    endloop
  endfacet
  facet normal 0 0 1
    outer loop
      vertex 3.09017 9.51056 -5
      vertex 5 -8.66025 -5
      vertex 5 8.66025 -5
    endloop
  endfacet
  facet normal 0 0 1
    outer loop
      vertex 3.09017 9.51056 -5
      vertex 3.09017 -9.51056 -5
      vertex 5 -8.66025 -5
    endloop
  endfacet
  facet normal 0 0 1
    outer loop
      vertex 1.04528 9.94522 -5
      vertex 3.09017 -9.51056 -5
      vertex 3.09017 9.51056 -5
    endloop
  endfacet
  facet normal 0 0 1
    outer loop
      vertex 1.04528 9.94522 -5
      vertex 1.04528 -9.94522 -5
      vertex 3.09017 -9.51056 -5
    endloop
  endfacet
  facet normal -0 0 1
    outer loop
      vertex -1.04528 9.94522 -5
      vertex 1.04528 -9.94522 -5
      vertex 1.04528 9.94522 -5
    endloop
  endfacet
  facet normal 0 0 1
    outer loop
      vertex -1.04528 9.94522 -5
      vertex -1.04528 -9.94522 -5
      vertex 1.04528 -9.94522 -5
    endloop
  endfacet
  facet normal -0 0 1
    outer loop
      vertex -3.09017 9.51056 -5
      vertex -1.04528 -9.94522 -5
      vertex -1.04528 9.94522 -5
    endloop
  endfacet
  facet normal 0 0 1
    outer loop
      vertex -3.09017 9.51056 -5
      vertex -3.09017 -9.51056 -5
      vertex -1.04528 -9.94522 -5
    endloop
  endfacet
  facet normal -0 0 1
    outer loop
      vertex -5 8.66025 -5
      vertex -3.09017 -9.51056 -5
      vertex -3.09017 9.51056 -5
    endloop
  endfacet
  facet normal 0 0 1
    outer loop
      vertex -5 8.66025 -5
      vertex -5 -8.66025 -5
      vertex -3.09017 -9.51056 -5
    endloop
  endfacet
  facet normal -0 0 1
    outer loop
      vertex -6.69131 7.43145 -5
      vertex -5 -8.66025 -5
      vertex -5 8.66025 -5
    endloop
  endfacet
  facet normal 0 0 1
    outer loop
      vertex -6.69131 7.43145 -5
      vertex -6.69131 -7.43145 -5
      vertex -5 -8.66025 -5
    endloop
  endfacet
  facet normal -0 0 1
    outer loop
      vertex -8.09017 5.87785 -5
      vertex -6.69131 -7.43145 -5
      vertex -6.69131 7.43145 -5
    endloop
  endfacet
  facet normal 0 0 1
    outer loop
      vertex -8.09017 5.87785 -5
      vertex -8.09017 -5.87785 -5
      vertex -6.69131 -7.43145 -5
    endloop
  endfacet
  facet normal -0 0 1
    outer loop
      vertex -9.13545 4.06737 -5
      vertex -8.09017 -5.87785 -5
      vertex -8.09017 5.87785 -5
    endloop
  endfacet
  facet normal 0 0 1
    outer loop
      vertex -9.13545 4.06737 -5
      vertex -9.13545 -4.06737 -5
      vertex -8.09017 -5.87785 -5
    endloop
  endfacet
  facet normal -0 0 1
    outer loop
      vertex -9.78148 2.07912 -5
      vertex -9.13545 -4.06737 -5
      vertex -9.13545 4.06737 -5
    endloop
  endfacet
  facet normal 0 0 1
    outer loop
      vertex -9.78148 2.07912 -5
      vertex -9.78148 -2.07912 -5
      vertex -9.13545 -4.06737 -5
    endloop
  endfacet
  facet normal 0 -0 1
    outer loop
      vertex -9.78148 -2.07912 -5
      vertex -9.78148 2.07912 -5
      vertex -10 0 -5
    endloop
  endfacet
endsolid OpenSCAD_Model
