solid OpenSCAD_Model
  facet normal 1 -0 0
    outer loop
      vertex 40 0 30
      vertex 40 25 0
      vertex 40 25 30
    endloop
  endfacet
  facet normal 1 0 0
    outer loop
      vertex 40 25 0
      vertex 40 0 30
      vertex 40 0 0
    endloop
  endfacet
  facet normal 0 0 -1
    outer loop
      vertex 43 -3 30
      vertex 40 0 30
      vertex 43 28 30
    endloop
  endfacet
  facet normal 0 0 -1
    outer loop
      vertex 43 -3 30
      vertex 0 0 30
      vertex 40 0 30
    endloop
  endfacet
  facet normal -0 0 -1
    outer loop
      vertex 0 0 30
      vertex -3 -3 30
      vertex 0 25 30
    endloop
  endfacet
  facet normal 0 0 -1
    outer loop
      vertex -3 -3 30
      vertex 0 0 30
      vertex 43 -3 30
    endloop
  endfacet
  facet normal 0 0 -1
    outer loop
      vertex 40 25 30
      vertex 43 28 30
      vertex 40 0 30
    endloop
  endfacet
  facet normal 0 0 -1
    outer loop
      vertex 0 25 30
      vertex 43 28 30
      vertex 40 25 30
    endloop
  endfacet
  facet normal 0 0 -1
    outer loop
      vertex 0 25 30
      vertex -3 28 30
      vertex 43 28 30
    endloop
  endfacet
  facet normal 0 0 -1
    outer loop
      vertex -3 28 30
      vertex 0 25 30
      vertex -3 -3 30
    endloop
  endfacet
  facet normal 0 0 1
    outer loop
      vertex 43 28 0
      vertex 40 25 0
      vertex 43 -3 0
    endloop
  endfacet
  facet normal 0 0 1
    outer loop
      vertex 43 28 0
      vertex 0 25 0
      vertex 40 25 0
    endloop
  endfacet
  facet normal 0 0 1
    outer loop
      vertex 0 25 0
      vertex -3 28 0
      vertex 0 0 0
    endloop
  endfacet
  facet normal -0 0 1
    outer loop
      vertex -3 28 0
      vertex 0 25 0
      vertex 43 28 0
    endloop
  endfacet
  facet normal -0 0 1
    outer loop
      vertex 40 0 0
      vertex 43 -3 0
      vertex 40 25 0
    endloop
  endfacet
  facet normal -0 0 1
    outer loop
      vertex 0 0 0
      vertex 43 -3 0
      vertex 40 0 0
    endloop
  endfacet
  facet normal 0 0 1
    outer loop
      vertex 0 0 0
      vertex -3 -3 0
      vertex 43 -3 0
    endloop
  endfacet
  facet normal 0 0 1
    outer loop
      vertex -3 -3 0
      vertex 0 0 0
      vertex -3 28 0
    endloop
  endfacet
  facet normal -1 0 0
    outer loop
      vertex 0 0 0
      vertex 0 25 30
      vertex 0 25 0
    endloop
  endfacet
  facet normal -1 -0 0
    outer loop
      vertex 0 25 30
      vertex 0 0 0
      vertex 0 0 30
    endloop
  endfacet
  facet normal 0 1 -0
    outer loop
      vertex 40 25 0
      vertex 0 25 30
      vertex 40 25 30
    endloop
  endfacet
  facet normal 0 1 0
    outer loop
      vertex 0 25 30
      vertex 40 25 0
      vertex 0 25 0
    endloop
  endfacet
  facet normal 0 -1 0
    outer loop
      vertex 0 0 0
      vertex 40 0 30
      vertex 0 0 30
    endloop
  endfacet
  facet normal 0 -1 -0
    outer loop
      vertex 40 0 30
      vertex 0 0 0
      vertex 40 0 0
    endloop
  endfacet
  facet normal 1 -0 0
    outer loop
      vertex 43 -3 32
      vertex 43 28 30
      vertex 43 28 32
    endloop
  endfacet
  facet normal 1 0 0
    outer loop
      vertex 43 28 30
      vertex 43 -3 32
      vertex 43 -3 30
    endloop
  endfacet
  facet normal -0 0 1
    outer loop
      vertex -3 28 32
      vertex 43 -3 32
      vertex 43 28 32
    endloop
  endfacet
  facet normal 0 0 1
    outer loop
      vertex 43 -3 32
      vertex -3 28 32
      vertex -3 -3 32
    endloop
  endfacet
  facet normal -1 0 0
    outer loop
      vertex -3 -3 30
      vertex -3 28 32
      vertex -3 28 30
    endloop
  endfacet
  facet normal -1 -0 0
    outer loop
      vertex -3 28 32
      vertex -3 -3 30
      vertex -3 -3 32
    endloop
  endfacet
  facet normal 0 1 -0
    outer loop
      vertex 43 28 30
      vertex -3 28 32
      vertex 43 28 32
    endloop
  endfacet
  facet normal 0 1 0
    outer loop
      vertex -3 28 32
      vertex 43 28 30
      vertex -3 28 30
    endloop
  endfacet
  facet normal 0 -1 0
    outer loop
      vertex -3 -3 30
      vertex 43 -3 32
      vertex -3 -3 32
    endloop
  endfacet
  facet normal 0 -1 -0
    outer loop
      vertex 43 -3 32
      vertex -3 -3 30
      vertex 43 -3 30
    endloop
  endfacet
  facet normal 1 -0 0
    outer loop
      vertex 43 -3 0
      vertex 43 28 -2
      vertex 43 28 0
    endloop
  endfacet
  facet normal 1 0 0
    outer loop
      vertex 43 28 -2
      vertex 43 -3 0
      vertex 43 -3 -2
    endloop
  endfacet
  facet normal 0 0 -1
    outer loop
      vertex -3 -3 -2
      vertex 43 28 -2
      vertex 43 -3 -2
    endloop
  endfacet
  facet normal -0 0 -1
    outer loop
      vertex 43 28 -2
      vertex -3 -3 -2
      vertex -3 28 -2
    endloop
  endfacet
  facet normal -1 0 0
    outer loop
      vertex -3 -3 -2
      vertex -3 28 0
      vertex -3 28 -2
    endloop
  endfacet
  facet normal -1 -0 0
    outer loop
      vertex -3 28 0
      vertex -3 -3 -2
      vertex -3 -3 0
    endloop
  endfacet
  facet normal 0 1 -0
    outer loop
      vertex 43 28 -2
      vertex -3 28 0
      vertex 43 28 0
    endloop
  endfacet
  facet normal 0 1 0
    outer loop
      vertex -3 28 0
      vertex 43 28 -2
      vertex -3 28 -2
    endloop
  endfacet
  facet normal 0 -1 0
    outer loop
      vertex -3 -3 -2
      vertex 43 -3 0
      vertex -3 -3 0
    endloop
  endfacet
  facet normal 0 -1 -0
    outer loop
      vertex 43 -3 0
      vertex -3 -3 -2
      vertex 43 -3 -2
    endloop
  endfacet
  facet normal -0.928477 -0.371391 0
    outer loop
      vertex 38 2 0
      vertex 32 17 30
      vertex 32 17 0
    endloop
  endfacet
  facet normal -0.928477 -0.371391 0
    outer loop
      vertex 32 17 30
      vertex 38 2 0
      vertex 38 2 30
    endloop
  endfacet
  facet normal 1 -0 0
    outer loop
      vertex 2 2 30
      vertex 2 17 0
      vertex 2 17 30
    endloop
  endfacet
  facet normal 1 0 0
    outer loop
      vertex 2 17 0
      vertex 2 2 30
      vertex 2 2 0
    endloop
  endfacet
  facet normal 0 1 -0
    outer loop
      vertex 38 2 0
      vertex 2 2 30
      vertex 38 2 30
    endloop
  endfacet
  facet normal 0 1 0
    outer loop
      vertex 2 2 30
      vertex 38 2 0
      vertex 2 2 0
    endloop
  endfacet
  facet normal 0 0 -1
    outer loop
      vertex 2 2 30
      vertex 32 17 30
      vertex 38 2 30
    endloop
  endfacet
  facet normal -0 0 -1
    outer loop
      vertex 32 17 30
      vertex 2 2 30
      vertex 2 17 30
    endloop
  endfacet
  facet normal 0 -1 0
    outer loop
      vertex 2 17 0
      vertex 32 17 30
      vertex 2 17 30
    endloop
  endfacet
  facet normal 0 -1 -0
    outer loop
      vertex 32 17 30
      vertex 2 17 0
      vertex 32 17 0
    endloop
  endfacet
  facet normal 0 0 1
    outer loop
      vertex 2 2 0
      vertex 32 17 0
      vertex 2 17 0
    endloop
  endfacet
  facet normal 0 0 1
    outer loop
      vertex 32 17 0
      vertex 2 2 0
      vertex 38 2 0
    endloop
  endfacet
endsolid OpenSCAD_Model
