solid OpenSCAD_Model
  facet normal -0.831458 0.555587 0
    outer loop
      vertex -29.6194 26.9134 0
      vertex -28.5355 28.5355 3
      vertex -28.5355 28.5355 0
    endloop
  endfacet
  facet normal -0.831458 0.555587 0
    outer loop
      vertex -28.5355 28.5355 3
      vertex -29.6194 26.9134 0
      vertex -29.6194 26.9134 3
    endloop
  endfacet
  facet normal 0.831458 -0.555587 0
    outer loop
      vertex 28.5355 -28.5355 3
      vertex 29.6194 -26.9134 0
      vertex 29.6194 -26.9134 3
    endloop
  endfacet
  facet normal 0.831458 -0.555587 0
    outer loop
      vertex 29.6194 -26.9134 0
      vertex 28.5355 -28.5355 3
      vertex 28.5355 -28.5355 0
    endloop
  endfacet
  facet normal 1 -0 0
    outer loop
      vertex 30 -25 3
      vertex 30 25 0
      vertex 30 25 3
    endloop
  endfacet
  facet normal 1 0 0
    outer loop
      vertex 30 25 0
      vertex 30 -25 3
      vertex 30 -25 0
    endloop
  endfacet
  facet normal 0.555587 -0.831458 0
    outer loop
      vertex 26.9134 -29.6194 0
      vertex 28.5355 -28.5355 3
      vertex 26.9134 -29.6194 3
    endloop
  endfacet
  facet normal 0.555587 -0.831458 0
    outer loop
      vertex 28.5355 -28.5355 3
      vertex 26.9134 -29.6194 0
      vertex 28.5355 -28.5355 0
    endloop
  endfacet
  facet normal -0.555587 -0.831458 0
    outer loop
      vertex -28.5355 -28.5355 0
      vertex -26.9134 -29.6194 3
      vertex -28.5355 -28.5355 3
    endloop
  endfacet
  facet normal -0.555587 -0.831458 -0
    outer loop
      vertex -26.9134 -29.6194 3
      vertex -28.5355 -28.5355 0
      vertex -26.9134 -29.6194 0
    endloop
  endfacet
  facet normal 0.195091 0.980785 -0
    outer loop
      vertex 26.9134 29.6194 0
      vertex 25 30 3
      vertex 26.9134 29.6194 3
    endloop
  endfacet
  facet normal 0.195091 0.980785 0
    outer loop
      vertex 25 30 3
      vertex 26.9134 29.6194 0
      vertex 25 30 0
    endloop
  endfacet
  facet normal -0.980785 0.195091 0
    outer loop
      vertex -30 25 0
      vertex -29.6194 26.9134 3
      vertex -29.6194 26.9134 0
    endloop
  endfacet
  facet normal -0.980785 0.195091 0
    outer loop
      vertex -29.6194 26.9134 3
      vertex -30 25 0
      vertex -30 25 3
    endloop
  endfacet
  facet normal -0.831458 -0.555587 0
    outer loop
      vertex -28.5355 -28.5355 0
      vertex -29.6194 -26.9134 3
      vertex -29.6194 -26.9134 0
    endloop
  endfacet
  facet normal -0.831458 -0.555587 0
    outer loop
      vertex -29.6194 -26.9134 3
      vertex -28.5355 -28.5355 0
      vertex -28.5355 -28.5355 3
    endloop
  endfacet
  facet normal 0 0 -1
    outer loop
      vertex 25 -30 0
      vertex 30 -25 0
      vertex 29.6194 -26.9134 0
    endloop
  endfacet
  facet normal 0 0 -1
    outer loop
      vertex 30 -25 0
      vertex 2.5 0 0
      vertex 30 25 0
    endloop
  endfacet
  facet normal 0 0 -1
    outer loop
      vertex 25 -30 0
      vertex 29.6194 -26.9134 0
      vertex 28.5355 -28.5355 0
    endloop
  endfacet
  facet normal 0 0 -1
    outer loop
      vertex 1.76777 1.76777 0
      vertex 30 25 0
      vertex 2.5 0 0
    endloop
  endfacet
  facet normal 0 0 -1
    outer loop
      vertex 25 -30 0
      vertex 28.5355 -28.5355 0
      vertex 26.9134 -29.6194 0
    endloop
  endfacet
  facet normal 0 -0 -1
    outer loop
      vertex 25 30 0
      vertex 30 25 0
      vertex 1.76777 1.76777 0
    endloop
  endfacet
  facet normal -0 0 -1
    outer loop
      vertex 30 -25 0
      vertex 25 -30 0
      vertex 1.76777 -1.76777 0
    endloop
  endfacet
  facet normal 0 0 -1
    outer loop
      vertex 30 25 0
      vertex 25 30 0
      vertex 29.6194 26.9134 0
    endloop
  endfacet
  facet normal 0 0 -1
    outer loop
      vertex 28.5355 28.5355 0
      vertex 25 30 0
      vertex 26.9134 29.6194 0
    endloop
  endfacet
  facet normal 0 0 -1
    outer loop
      vertex 30 -25 0
      vertex 1.76777 -1.76777 0
      vertex 2.5 0 0
    endloop
  endfacet
  facet normal 0 0 -1
    outer loop
      vertex 25 -30 0
      vertex 0 -2.5 0
      vertex 1.76777 -1.76777 0
    endloop
  endfacet
  facet normal 0 0 -1
    outer loop
      vertex -25 -30 0
      vertex 0 -2.5 0
      vertex 25 -30 0
    endloop
  endfacet
  facet normal 0 0 -1
    outer loop
      vertex -30 -25 0
      vertex -1.76777 -1.76777 0
      vertex -25 -30 0
    endloop
  endfacet
  facet normal -0 0 -1
    outer loop
      vertex 0 -2.5 0
      vertex -25 -30 0
      vertex -1.76777 -1.76777 0
    endloop
  endfacet
  facet normal 0 0 -1
    outer loop
      vertex 29.6194 26.9134 0
      vertex 25 30 0
      vertex 28.5355 28.5355 0
    endloop
  endfacet
  facet normal 0 0 -1
    outer loop
      vertex 0 2.5 0
      vertex 25 30 0
      vertex 1.76777 1.76777 0
    endloop
  endfacet
  facet normal 0 0 -1
    outer loop
      vertex -25 30 0
      vertex 0 2.5 0
      vertex -1.76777 1.76777 0
    endloop
  endfacet
  facet normal -0 0 -1
    outer loop
      vertex -1.76777 -1.76777 0
      vertex -30 -25 0
      vertex -2.5 0 0
    endloop
  endfacet
  facet normal 0 0 -1
    outer loop
      vertex 0 2.5 0
      vertex -25 30 0
      vertex 25 30 0
    endloop
  endfacet
  facet normal 0 0 -1
    outer loop
      vertex -30 25 0
      vertex -2.5 0 0
      vertex -30 -25 0
    endloop
  endfacet
  facet normal 0 0 -1
    outer loop
      vertex -30 -25 0
      vertex -25 -30 0
      vertex -26.9134 -29.6194 0
    endloop
  endfacet
  facet normal 0 0 -1
    outer loop
      vertex -2.5 0 0
      vertex -30 25 0
      vertex -1.76777 1.76777 0
    endloop
  endfacet
  facet normal 0 0 -1
    outer loop
      vertex -30 -25 0
      vertex -26.9134 -29.6194 0
      vertex -28.5355 -28.5355 0
    endloop
  endfacet
  facet normal 0 0 -1
    outer loop
      vertex -1.76777 1.76777 0
      vertex -30 25 0
      vertex -25 30 0
    endloop
  endfacet
  facet normal 0 0 -1
    outer loop
      vertex -30 -25 0
      vertex -28.5355 -28.5355 0
      vertex -29.6194 -26.9134 0
    endloop
  endfacet
  facet normal 0 0 -1
    outer loop
      vertex -25 30 0
      vertex -30 25 0
      vertex -26.9134 29.6194 0
    endloop
  endfacet
  facet normal 0 0 -1
    outer loop
      vertex -26.9134 29.6194 0
      vertex -30 25 0
      vertex -28.5355 28.5355 0
    endloop
  endfacet
  facet normal 0 0 -1
    outer loop
      vertex -28.5355 28.5355 0
      vertex -30 25 0
      vertex -29.6194 26.9134 0
    endloop
  endfacet
  facet normal 0 1 -0
    outer loop
      vertex 25 30 0
      vertex -25 30 3
      vertex 25 30 3
    endloop
  endfacet
  facet normal 0 1 0
    outer loop
      vertex -25 30 3
      vertex 25 30 0
      vertex -25 30 0
    endloop
  endfacet
  facet normal -0.195091 -0.980785 0
    outer loop
      vertex -26.9134 -29.6194 0
      vertex -25 -30 3
      vertex -26.9134 -29.6194 3
    endloop
  endfacet
  facet normal -0.195091 -0.980785 -0
    outer loop
      vertex -25 -30 3
      vertex -26.9134 -29.6194 0
      vertex -25 -30 0
    endloop
  endfacet
  facet normal 0.831458 0.555587 0
    outer loop
      vertex 29.6194 26.9134 3
      vertex 28.5355 28.5355 0
      vertex 28.5355 28.5355 3
    endloop
  endfacet
  facet normal 0.831458 0.555587 0
    outer loop
      vertex 28.5355 28.5355 0
      vertex 29.6194 26.9134 3
      vertex 29.6194 26.9134 0
    endloop
  endfacet
  facet normal 0.980785 0.195091 0
    outer loop
      vertex 30 25 3
      vertex 29.6194 26.9134 0
      vertex 29.6194 26.9134 3
    endloop
  endfacet
  facet normal 0.980785 0.195091 0
    outer loop
      vertex 29.6194 26.9134 0
      vertex 30 25 3
      vertex 30 25 0
    endloop
  endfacet
  facet normal 0 -1 0
    outer loop
      vertex -25 -30 0
      vertex 25 -30 3
      vertex -25 -30 3
    endloop
  endfacet
  facet normal 0 -1 -0
    outer loop
      vertex 25 -30 3
      vertex -25 -30 0
      vertex 25 -30 0
    endloop
  endfacet
  facet normal 0.195091 -0.980785 0
    outer loop
      vertex 25 -30 0
      vertex 26.9134 -29.6194 3
      vertex 25 -30 3
    endloop
  endfacet
  facet normal 0.195091 -0.980785 0
    outer loop
      vertex 26.9134 -29.6194 3
      vertex 25 -30 0
      vertex 26.9134 -29.6194 0
    endloop
  endfacet
  facet normal -1 0 0
    outer loop
      vertex -30 -25 0
      vertex -30 25 3
      vertex -30 25 0
    endloop
  endfacet
  facet normal -1 -0 0
    outer loop
      vertex -30 25 3
      vertex -30 -25 0
      vertex -30 -25 3
    endloop
  endfacet
  facet normal -0.195091 0.980785 0
    outer loop
      vertex -25 30 0
      vertex -26.9134 29.6194 3
      vertex -25 30 3
    endloop
  endfacet
  facet normal -0.195091 0.980785 0
    outer loop
      vertex -26.9134 29.6194 3
      vertex -25 30 0
      vertex -26.9134 29.6194 0
    endloop
  endfacet
  facet normal -0.555587 0.831458 0
    outer loop
      vertex -26.9134 29.6194 0
      vertex -28.5355 28.5355 3
      vertex -26.9134 29.6194 3
    endloop
  endfacet
  facet normal -0.555587 0.831458 0
    outer loop
      vertex -28.5355 28.5355 3
      vertex -26.9134 29.6194 0
      vertex -28.5355 28.5355 0
    endloop
  endfacet
  facet normal 0.555587 0.831458 -0
    outer loop
      vertex 28.5355 28.5355 0
      vertex 26.9134 29.6194 3
      vertex 28.5355 28.5355 3
    endloop
  endfacet
  facet normal 0.555587 0.831458 0
    outer loop
      vertex 26.9134 29.6194 3
      vertex 28.5355 28.5355 0
      vertex 26.9134 29.6194 0
    endloop
  endfacet
  facet normal -0.980785 -0.195091 0
    outer loop
      vertex -29.6194 -26.9134 0
      vertex -30 -25 3
      vertex -30 -25 0
    endloop
  endfacet
  facet normal -0.980785 -0.195091 0
    outer loop
      vertex -30 -25 3
      vertex -29.6194 -26.9134 0
      vertex -29.6194 -26.9134 3
    endloop
  endfacet
  facet normal 0.980785 -0.195091 0
    outer loop
      vertex 29.6194 -26.9134 3
      vertex 30 -25 0
      vertex 30 -25 3
    endloop
  endfacet
  facet normal 0.980785 -0.195091 0
    outer loop
      vertex 30 -25 0
      vertex 29.6194 -26.9134 3
      vertex 29.6194 -26.9134 0
    endloop
  endfacet
  facet normal 0 0 1
    outer loop
      vertex 25 30 3
      vertex 30 25 3
      vertex 29.6194 26.9134 3
    endloop
  endfacet
  facet normal 0 0 1
    outer loop
      vertex 30 25 3
      vertex 25 30 3
      vertex 30 -25 3
    endloop
  endfacet
  facet normal 0 0 1
    outer loop
      vertex 25 30 3
      vertex 29.6194 26.9134 3
      vertex 28.5355 28.5355 3
    endloop
  endfacet
  facet normal 0 0 1
    outer loop
      vertex 25 -30 3
      vertex 30 -25 3
      vertex 25 30 3
    endloop
  endfacet
  facet normal 0 0 1
    outer loop
      vertex 25 30 3
      vertex 28.5355 28.5355 3
      vertex 26.9134 29.6194 3
    endloop
  endfacet
  facet normal 0 0 1
    outer loop
      vertex 30 -25 3
      vertex 25 -30 3
      vertex 29.6194 -26.9134 3
    endloop
  endfacet
  facet normal 0 0 1
    outer loop
      vertex 29.6194 -26.9134 3
      vertex 25 -30 3
      vertex 28.5355 -28.5355 3
    endloop
  endfacet
  facet normal 0 0 1
    outer loop
      vertex 28.5355 -28.5355 3
      vertex 25 -30 3
      vertex 26.9134 -29.6194 3
    endloop
  endfacet
  facet normal -0 0 1
    outer loop
      vertex -25 30 3
      vertex 25 -30 3
      vertex 25 30 3
    endloop
  endfacet
  facet normal 0 0 1
    outer loop
      vertex -25 30 3
      vertex -25 -30 3
      vertex 25 -30 3
    endloop
  endfacet
  facet normal 0 0 1
    outer loop
      vertex -30 25 3
      vertex -25 30 3
      vertex -26.9134 29.6194 3
    endloop
  endfacet
  facet normal 0 0 1
    outer loop
      vertex -25 30 3
      vertex -30 25 3
      vertex -25 -30 3
    endloop
  endfacet
  facet normal 0 0 1
    outer loop
      vertex -30 25 3
      vertex -26.9134 29.6194 3
      vertex -28.5355 28.5355 3
    endloop
  endfacet
  facet normal -0 0 1
    outer loop
      vertex -30 -25 3
      vertex -25 -30 3
      vertex -30 25 3
    endloop
  endfacet
  facet normal 0 0 1
    outer loop
      vertex -30 25 3
      vertex -28.5355 28.5355 3
      vertex -29.6194 26.9134 3
    endloop
  endfacet
  facet normal 0 0 1
    outer loop
      vertex -25 -30 3
      vertex -30 -25 3
      vertex -26.9134 -29.6194 3
    endloop
  endfacet
  facet normal 0 0 1
    outer loop
      vertex -26.9134 -29.6194 3
      vertex -30 -25 3
      vertex -28.5355 -28.5355 3
    endloop
  endfacet
  facet normal 0 0 1
    outer loop
      vertex -28.5355 -28.5355 3
      vertex -30 -25 3
      vertex -29.6194 -26.9134 3
    endloop
  endfacet
  facet normal 0.92388 0.382682 0
    outer loop
      vertex -1.76777 -1.76777 1.5
      vertex -2.5 0 0
      vertex -2.5 0 1.5
    endloop
  endfacet
  facet normal 0.92388 0.382682 0
    outer loop
      vertex -2.5 0 0
      vertex -1.76777 -1.76777 1.5
      vertex -1.76777 -1.76777 0
    endloop
  endfacet
  facet normal -0.382682 -0.92388 0
    outer loop
      vertex 0 2.5 0
      vertex 1.76777 1.76777 1.5
      vertex 0 2.5 1.5
    endloop
  endfacet
  facet normal -0.382682 -0.92388 -0
    outer loop
      vertex 1.76777 1.76777 1.5
      vertex 0 2.5 0
      vertex 1.76777 1.76777 0
    endloop
  endfacet
  facet normal -0.92388 -0.382682 0
    outer loop
      vertex 2.5 0 0
      vertex 1.76777 1.76777 1.5
      vertex 1.76777 1.76777 0
    endloop
  endfacet
  facet normal -0.92388 -0.382682 0
    outer loop
      vertex 1.76777 1.76777 1.5
      vertex 2.5 0 0
      vertex 2.5 0 1.5
    endloop
  endfacet
  facet normal -0.92388 0.382682 0
    outer loop
      vertex 1.76777 -1.76777 0
      vertex 2.5 0 1.5
      vertex 2.5 0 0
    endloop
  endfacet
  facet normal -0.92388 0.382682 0
    outer loop
      vertex 2.5 0 1.5
      vertex 1.76777 -1.76777 0
      vertex 1.76777 -1.76777 1.5
    endloop
  endfacet
  facet normal 0.382682 0.92388 -0
    outer loop
      vertex 0 -2.5 0
      vertex -1.76777 -1.76777 1.5
      vertex 0 -2.5 1.5
    endloop
  endfacet
  facet normal 0.382682 0.92388 0
    outer loop
      vertex -1.76777 -1.76777 1.5
      vertex 0 -2.5 0
      vertex -1.76777 -1.76777 0
    endloop
  endfacet
  facet normal 0.92388 -0.382682 0
    outer loop
      vertex -2.5 0 1.5
      vertex -1.76777 1.76777 0
      vertex -1.76777 1.76777 1.5
    endloop
  endfacet
  facet normal 0.92388 -0.382682 0
    outer loop
      vertex -1.76777 1.76777 0
      vertex -2.5 0 1.5
      vertex -2.5 0 0
    endloop
  endfacet
  facet normal -0.382682 0.92388 0
    outer loop
      vertex 1.76777 -1.76777 0
      vertex 0 -2.5 1.5
      vertex 1.76777 -1.76777 1.5
    endloop
  endfacet
  facet normal -0.382682 0.92388 0
    outer loop
      vertex 0 -2.5 1.5
      vertex 1.76777 -1.76777 0
      vertex 0 -2.5 0
    endloop
  endfacet
  facet normal 0 0 -1
    outer loop
      vertex 1.76777 -1.76777 1.5
      vertex 1.76777 1.76777 1.5
      vertex 2.5 0 1.5
    endloop
  endfacet
  facet normal 0 0 -1
    outer loop
      vertex 0 -2.5 1.5
      vertex 1.76777 1.76777 1.5
      vertex 1.76777 -1.76777 1.5
    endloop
  endfacet
  facet normal 0 0 -1
    outer loop
      vertex 0 -2.5 1.5
      vertex 0 2.5 1.5
      vertex 1.76777 1.76777 1.5
    endloop
  endfacet
  facet normal 0 0 -1
    outer loop
      vertex -1.76777 -1.76777 1.5
      vertex 0 2.5 1.5
      vertex 0 -2.5 1.5
    endloop
  endfacet
  facet normal 0 0 -1
    outer loop
      vertex -1.76777 -1.76777 1.5
      vertex -1.76777 1.76777 1.5
      vertex 0 2.5 1.5
    endloop
  endfacet
  facet normal 0 -0 -1
    outer loop
      vertex -1.76777 1.76777 1.5
      vertex -1.76777 -1.76777 1.5
      vertex -2.5 0 1.5
    endloop
  endfacet
  facet normal 0.382682 -0.92388 0
    outer loop
      vertex -1.76777 1.76777 0
      vertex 0 2.5 1.5
      vertex -1.76777 1.76777 1.5
    endloop
  endfacet
  facet normal 0.382682 -0.92388 0
    outer loop
      vertex 0 2.5 1.5
      vertex -1.76777 1.76777 0
      vertex 0 2.5 0
    endloop
  endfacet
endsolid OpenSCAD_Model
